<?xml version="1.0" encoding="UTF-8" standalone="no"?>
<!-- Created with Inkscape (http://www.inkscape.org/) -->

<svg
   width="67.73333mm"
   height="67.73333mm"
   viewBox="0 0 67.73333 67.73333"
   version="1.1"
   id="svg1"
   inkscape:version="1.3.2 (1:1.3.2+202311252150+091e20ef0f)"
   xml:space="preserve"
   inkscape:export-filename="orcid.png"
   inkscape:export-xdpi="96"
   inkscape:export-ydpi="96"
   sodipodi:docname="orcid.svg"
   xmlns:inkscape="http://www.inkscape.org/namespaces/inkscape"
   xmlns:sodipodi="http://sodipodi.sourceforge.net/DTD/sodipodi-0.dtd"
   xmlns="http://www.w3.org/2000/svg"
   xmlns:svg="http://www.w3.org/2000/svg"><sodipodi:namedview
     id="namedview1"
     pagecolor="#ffffff"
     bordercolor="#000000"
     borderopacity="0.25"
     inkscape:showpageshadow="2"
     inkscape:pageopacity="0.0"
     inkscape:pagecheckerboard="true"
     inkscape:deskcolor="#6c6c6c"
     inkscape:document-units="mm"
     showguides="true"
     inkscape:zoom="0.98171998"
     inkscape:cx="127.83686"
     inkscape:cy="128.34617"
     inkscape:window-width="3440"
     inkscape:window-height="1324"
     inkscape:window-x="1080"
     inkscape:window-y="270"
     inkscape:window-maximized="1"
     inkscape:current-layer="layer1"><sodipodi:guide
       position="-54.490243,386.63333"
       orientation="0,1"
       id="guide1"
       inkscape:locked="false"
       inkscape:label=""
       inkscape:color="rgb(0,134,229)" /><sodipodi:guide
       position="-26.794862,139.63333"
       orientation="0,1"
       id="guide2"
       inkscape:locked="false"
       inkscape:label=""
       inkscape:color="rgb(0,134,229)" /><sodipodi:guide
       position="-43.607472,368.90332"
       orientation="-1,0"
       id="guide3"
       inkscape:locked="false"
       inkscape:label=""
       inkscape:color="rgb(0,134,229)" /><sodipodi:guide
       position="33.892528,294.08312"
       orientation="-1,0"
       id="guide4"
       inkscape:locked="false"
       inkscape:label=""
       inkscape:color="rgb(0,134,229)" /><sodipodi:guide
       position="111.39253,229.13333"
       orientation="-1,0"
       id="guide5"
       inkscape:locked="false"
       inkscape:label=""
       inkscape:color="rgb(0,134,229)" /></sodipodi:namedview><defs
     id="defs1" /><g
     inkscape:label="Layer 1"
     inkscape:groupmode="layer"
     id="layer1"
     transform="translate(-71.107472,-114.63333)"><g
       id="g1"
       transform="matrix(0.26458333,0,0,0.26458333,71.107472,114.63333)"><path
         class="st0"
         d="M 256,128 C 256,198.7 198.7,256 128,256 57.3,256 0,198.7 0,128 0,57.3 57.3,0 128,0 198.7,0 256,57.3 256,128 Z"
         id="path1"
         style="fill:#ffffff;fill-opacity:1" /><g
         id="g4"
         style="fill:#000000;fill-opacity:1">
	<path
   class="st1"
   d="M 86.3,186.2 H 70.9 V 79.1 h 15.4 v 48.4 z"
   id="path2"
   style="fill:#000000;fill-opacity:1" />
	<path
   class="st1"
   d="m 108.9,79.1 h 41.6 c 39.6,0 57,28.3 57,53.6 0,27.5 -21.5,53.6 -56.8,53.6 h -41.8 z m 15.4,93.3 h 24.5 c 34.9,0 42.9,-26.5 42.9,-39.7 C 191.7,111.2 178,93 148,93 h -23.7 z"
   id="path3"
   style="fill:#000000;fill-opacity:1" />
	<path
   class="st1"
   d="m 88.7,56.8 c 0,5.5 -4.5,10.1 -10.1,10.1 -5.6,0 -10.1,-4.6 -10.1,-10.1 0,-5.6 4.5,-10.1 10.1,-10.1 5.6,0 10.1,4.6 10.1,10.1 z"
   id="path4"
   style="fill:#000000;fill-opacity:1" />
</g></g></g><style
     type="text/css"
     id="style1">
	.st0{fill:#000000;}
	.st1{fill:#FFFFFF;}
</style></svg>
